<svg width="40" height="40" viewBox="0 0 40 40" fill="none" xmlns="http://www.w3.org/2000/svg">
<mask id="mask0_157_504" style="mask-type:alpha" maskUnits="userSpaceOnUse" x="0" y="0" width="40" height="40">
<rect width="40" height="40" fill="#D9D9D9"/>
</mask>
<g mask="url(#mask0_157_504)">
<path d="M25.972 31.6667C25.2082 31.6667 24.5543 31.3948 24.0104 30.8509C23.4665 30.3067 23.1945 29.6527 23.1945 28.8888V11.1113C23.1945 10.3474 23.4665 9.69337 24.0104 9.14921C24.5543 8.60532 25.2082 8.33337 25.972 8.33337H27.5C28.2639 8.33337 28.9177 8.60532 29.4616 9.14921C30.0058 9.69337 30.2779 10.3474 30.2779 11.1113V28.8888C30.2779 29.6527 30.0058 30.3067 29.4616 30.8509C28.9177 31.3948 28.2639 31.6667 27.5 31.6667H25.972ZM12.5 31.6667C11.7361 31.6667 11.0822 31.3948 10.5383 30.8509C9.99413 30.3067 9.72205 29.6527 9.72205 28.8888V11.1113C9.72205 10.3474 9.99413 9.69337 10.5383 9.14921C11.0822 8.60532 11.7361 8.33337 12.5 8.33337H14.0279C14.7918 8.33337 15.4457 8.60532 15.9895 9.14921C16.5334 9.69337 16.8054 10.3474 16.8054 11.1113V28.8888C16.8054 29.6527 16.5334 30.3067 15.9895 30.8509C15.4457 31.3948 14.7918 31.6667 14.0279 31.6667H12.5Z" fill="#F27A2F"/>
</g>
</svg>
