<svg width="40" height="40" viewBox="0 0 40 40" fill="none" xmlns="http://www.w3.org/2000/svg">
<mask id="mask0_219_192" style="mask-type:alpha" maskUnits="userSpaceOnUse" x="0" y="0" width="40" height="40">
<rect width="40" height="40" fill="#D9D9D9"/>
</mask>
<g mask="url(#mask0_219_192)">
<path d="M25.9722 31.6667C25.2083 31.6667 24.5544 31.3948 24.0105 30.8509C23.4666 30.3067 23.1947 29.6527 23.1947 28.8888V11.1113C23.1947 10.3474 23.4666 9.69337 24.0105 9.14921C24.5544 8.60532 25.2083 8.33337 25.9722 8.33337H27.5001C28.264 8.33337 28.9179 8.60532 29.4618 9.14921C30.0059 9.69337 30.278 10.3474 30.278 11.1113V28.8888C30.278 29.6527 30.0059 30.3067 29.4618 30.8509C28.9179 31.3948 28.264 31.6667 27.5001 31.6667H25.9722ZM12.5001 31.6667C11.7362 31.6667 11.0823 31.3948 10.5384 30.8509C9.99425 30.3067 9.72217 29.6527 9.72217 28.8888V11.1113C9.72217 10.3474 9.99425 9.69337 10.5384 9.14921C11.0823 8.60532 11.7362 8.33337 12.5001 8.33337H14.028C14.7919 8.33337 15.4458 8.60532 15.9897 9.14921C16.5336 9.69337 16.8055 10.3474 16.8055 11.1113V28.8888C16.8055 29.6527 16.5336 30.3067 15.9897 30.8509C15.4458 31.3948 14.7919 31.6667 14.028 31.6667H12.5001Z" fill="#F6F5F4"/>
</g>
</svg>
