<svg width="40" height="40" viewBox="0 0 40 40" fill="none" xmlns="http://www.w3.org/2000/svg">
<mask id="mask0_190_592" style="mask-type:alpha" maskUnits="userSpaceOnUse" x="0" y="0" width="40" height="40">
<rect width="40" height="40" fill="#D9D9D9"/>
</mask>
<g mask="url(#mask0_190_592)">
<path d="M13.3334 29.0417V10.7917C13.3334 10.375 13.4728 10.0393 13.7517 9.78462C14.0309 9.53018 14.3564 9.40295 14.7284 9.40295C14.8448 9.40295 14.9666 9.41907 15.0938 9.45129C15.221 9.48379 15.3425 9.5324 15.4584 9.59712L29.8196 18.75C30.0324 18.8981 30.1921 19.0693 30.2988 19.2638C30.4052 19.4582 30.4584 19.6759 30.4584 19.9167C30.4584 20.1575 30.4052 20.3752 30.2988 20.5696C30.1921 20.7641 30.0324 20.9353 29.8196 21.0834L15.4584 30.2363C15.342 30.301 15.2198 30.3496 15.0917 30.3821C14.9637 30.4143 14.8416 30.4305 14.7255 30.4305C14.353 30.4305 14.0278 30.3032 13.75 30.0488C13.4723 29.7941 13.3334 29.4584 13.3334 29.0417ZM16.1113 26.528L26.5 19.9167L16.1113 13.3055V26.528Z" fill="#F27A2F"/>
</g>
</svg>
