<svg width="40" height="40" viewBox="0 0 40 40" fill="none" xmlns="http://www.w3.org/2000/svg">
<mask id="mask0_220_214" style="mask-type:alpha" maskUnits="userSpaceOnUse" x="0" y="0" width="40" height="40">
<rect width="40" height="40" fill="#D9D9D9"/>
</mask>
<g mask="url(#mask0_220_214)">
<path d="M13.3333 29.0417V10.7917C13.3333 10.375 13.4721 10.0393 13.7499 9.78462C14.0277 9.53018 14.3517 9.40295 14.722 9.40295C14.8426 9.40295 14.9653 9.41907 15.0903 9.45129C15.2153 9.48379 15.338 9.5324 15.4583 9.59712L29.8195 18.75C30.0323 18.8981 30.192 19.0693 30.2987 19.2638C30.4051 19.4582 30.4583 19.6759 30.4583 19.9167C30.4583 20.1575 30.4051 20.3752 30.2987 20.5696C30.192 20.7641 30.0323 20.9353 29.8195 21.0834L15.4583 30.2363C15.338 30.301 15.2153 30.3496 15.0903 30.3821C14.9653 30.4143 14.8426 30.4305 14.722 30.4305C14.3517 30.4305 14.0277 30.3032 13.7499 30.0488C13.4721 29.7941 13.3333 29.4584 13.3333 29.0417Z" fill="#F6F5F4"/>
</g>
</svg>
