<svg width="40" height="40" viewBox="0 0 40 40" fill="none" xmlns="http://www.w3.org/2000/svg">
<mask id="mask0_157_473" style="mask-type:alpha" maskUnits="userSpaceOnUse" x="0" y="0" width="40" height="40">
<rect width="40" height="40" fill="#D9D9D9"/>
</mask>
<g mask="url(#mask0_157_473)">
<path d="M11.7981 30.8535L20 22.6517L28.2018 30.8535C28.5642 31.2159 29.0155 31.4029 29.5279 31.4029C30.0401 31.4029 30.4913 31.2158 30.8535 30.8535C31.2158 30.4913 31.4029 30.0401 31.4029 29.5279C31.4029 29.0155 31.2159 28.5642 30.8535 28.2018L22.6517 20L30.8535 11.7981C31.2159 11.4358 31.4029 10.9844 31.4029 10.472C31.4029 9.95983 31.2158 9.50867 30.8535 9.14641C30.4913 8.78415 30.0401 8.59705 29.5279 8.59705C29.0155 8.59705 28.5642 8.78407 28.2018 9.14641L20 17.3483L11.7981 9.14641L11.4445 9.49996L11.7981 9.14641C11.4358 8.78407 10.9844 8.59705 10.472 8.59705C9.95983 8.59705 9.50867 8.78415 9.14641 9.14641C8.78415 9.50867 8.59705 9.95982 8.59705 10.472C8.59705 10.9844 8.78407 11.4358 9.14641 11.7981L17.3483 20L9.14641 28.2018C8.78407 28.5642 8.59705 29.0155 8.59705 29.5279C8.59705 30.0401 8.78415 30.4913 9.14641 30.8535C9.50867 31.2158 9.95983 31.4029 10.472 31.4029C10.9844 31.4029 11.4358 31.2159 11.7981 30.8535Z" fill="#F6F5F4" stroke="#F6F5F4"/>
</g>
</svg>
