<svg width="40" height="40" viewBox="0 0 40 40" fill="none" xmlns="http://www.w3.org/2000/svg">
<mask id="mask0_219_173" style="mask-type:alpha" maskUnits="userSpaceOnUse" x="0" y="0" width="40" height="40">
<rect width="40" height="40" fill="#D9D9D9"/>
</mask>
<g mask="url(#mask0_219_173)">
<path d="M11.7982 30.8535L20.0001 22.6517L28.2019 30.8535C28.5643 31.2159 29.0156 31.4029 29.528 31.4029C30.0402 31.4029 30.4914 31.2158 30.8536 30.8535C31.2159 30.4913 31.403 30.0401 31.403 29.5279C31.403 29.0155 31.216 28.5642 30.8536 28.2018L22.6518 20L30.8536 11.7981C31.216 11.4358 31.403 10.9844 31.403 10.472C31.403 9.95983 31.2159 9.50867 30.8536 9.14641C30.4914 8.78415 30.0402 8.59705 29.528 8.59705C29.0156 8.59705 28.5643 8.78407 28.2019 9.14641L20.0001 17.3483L11.7982 9.14641C11.4359 8.78407 10.9846 8.59705 10.4722 8.59705C9.95995 8.59705 9.50879 8.78415 9.14653 9.14641C8.78427 9.50867 8.59717 9.95982 8.59717 10.472C8.59717 10.9844 8.78419 11.4358 9.14653 11.7981L17.3484 20L9.14653 28.2018C8.78419 28.5642 8.59717 29.0155 8.59717 29.5279C8.59717 30.0401 8.78427 30.4913 9.14653 30.8535C9.50879 31.2158 9.95995 31.4029 10.4722 31.4029C10.9846 31.4029 11.4359 31.2159 11.7982 30.8535Z" fill="#F27A2F" stroke="#F27A2F"/>
</g>
</svg>
